<svg width="96" height="12" viewBox="0 0 96 12" fill="none" xmlns="http://www.w3.org/2000/svg">
<path d="M5.542 11.068C5.17933 11.068 4.74867 11.051 4.25 11.017C4.06867 11.0057 3.842 10.9943 3.57 10.983C3.30933 10.9717 3.01467 10.966 2.686 10.966L1.428 10.983C1.20133 10.9943 0.895333 11 0.51 11C0.487333 11 0.476 10.966 0.476 10.898C0.476 10.83 0.487333 10.796 0.51 10.796C0.872667 10.796 1.139 10.7677 1.309 10.711C1.479 10.6543 1.59233 10.5467 1.649 10.388C1.717 10.218 1.751 9.963 1.751 9.623V1.752C1.751 1.412 1.717 1.16267 1.649 1.004C1.59233 0.845333 1.479 0.737666 1.309 0.680999C1.15033 0.612999 0.895333 0.578999 0.544 0.578999C0.51 0.578999 0.493 0.545 0.493 0.477C0.493 0.409 0.51 0.375 0.544 0.375L1.445 0.392C1.96633 0.414666 2.38 0.425999 2.686 0.425999C3.15067 0.425999 3.62667 0.409 4.114 0.375C4.70333 0.352333 5.1 0.340999 5.304 0.340999C6.44867 0.340999 7.463 0.567666 8.347 1.021C9.24233 1.47433 9.93367 2.092 10.421 2.874C10.9083 3.656 11.152 4.53433 11.152 5.509C11.152 6.60833 10.897 7.583 10.387 8.433C9.88833 9.27167 9.20833 9.92333 8.347 10.388C7.497 10.8413 6.562 11.068 5.542 11.068ZM5.372 10.677C6.09733 10.677 6.73767 10.4957 7.293 10.133C7.84833 9.759 8.279 9.20933 8.585 8.484C8.90233 7.75867 9.061 6.89167 9.061 5.883C9.061 4.91967 8.91367 4.047 8.619 3.265C8.32433 2.47167 7.905 1.84833 7.361 1.395C6.817 0.941666 6.188 0.715 5.474 0.715C4.77133 0.715 4.28967 0.782999 4.029 0.918999C3.76833 1.055 3.638 1.344 3.638 1.786V9.436C3.638 9.88933 3.757 10.2123 3.995 10.405C4.233 10.5863 4.692 10.677 5.372 10.677ZM18.4827 9.878C18.5054 9.878 18.5281 9.90067 18.5507 9.946C18.5847 9.99133 18.5904 10.0253 18.5677 10.048C18.1484 10.456 17.7234 10.7507 17.2927 10.932C16.8621 11.1133 16.3917 11.204 15.8817 11.204C15.1677 11.204 14.5501 11.0567 14.0287 10.762C13.5074 10.456 13.1107 10.0537 12.8387 9.555C12.5667 9.045 12.4307 8.501 12.4307 7.923C12.4307 7.26567 12.6007 6.65933 12.9407 6.104C13.2807 5.53733 13.7454 5.09533 14.3347 4.778C14.9241 4.44933 15.5814 4.285 16.3067 4.285C17.0094 4.285 17.5477 4.438 17.9217 4.744C18.2957 5.03867 18.4827 5.44667 18.4827 5.968C18.4827 6.29667 18.4204 6.461 18.2957 6.461H17.2587L14.1987 6.495C14.1647 6.71033 14.1477 6.94833 14.1477 7.209C14.1477 8.18367 14.3744 8.95433 14.8277 9.521C15.2924 10.0877 15.9271 10.371 16.7317 10.371C17.0151 10.371 17.3097 10.3313 17.6157 10.252C17.9217 10.1727 18.1994 10.0537 18.4487 9.895L18.4827 9.878ZM15.6777 4.625C15.3377 4.625 15.0431 4.761 14.7937 5.033C14.5444 5.305 14.3631 5.679 14.2497 6.155L16.6637 6.104C16.6297 5.118 16.3011 4.625 15.6777 4.625ZM20.9982 5.254C20.9982 5.58267 21.1115 5.866 21.3382 6.104C21.5762 6.342 21.9162 6.59133 22.3582 6.852C22.7889 7.10133 23.1062 7.29967 23.3102 7.447C23.5255 7.583 23.7182 7.78133 23.8882 8.042C24.0582 8.29133 24.1432 8.59733 24.1432 8.96C24.1432 9.34533 24.0469 9.708 23.8542 10.048C23.6615 10.388 23.3725 10.6657 22.9872 10.881C22.6019 11.085 22.1429 11.187 21.6102 11.187C20.9869 11.187 20.3975 11.034 19.8422 10.728C19.7742 10.66 19.7402 10.592 19.7402 10.524L19.7062 8.841C19.7062 8.807 19.7345 8.79 19.7912 8.79C19.8592 8.77867 19.8989 8.78433 19.9102 8.807C20.0915 9.37367 20.3919 9.85533 20.8112 10.252C21.2305 10.6487 21.6555 10.847 22.0862 10.847C22.3242 10.847 22.5112 10.7733 22.6472 10.626C22.7945 10.4787 22.8682 10.2633 22.8682 9.98C22.8682 9.56067 22.7492 9.232 22.5112 8.994C22.2732 8.74467 21.9219 8.48967 21.4572 8.229C21.0605 8.01367 20.7602 7.838 20.5562 7.702C20.3522 7.566 20.1709 7.37333 20.0122 7.124C19.8535 6.87467 19.7742 6.56867 19.7742 6.206C19.7742 5.53733 20.0122 5.05 20.4882 4.744C20.9642 4.42667 21.5479 4.268 22.2392 4.268C22.4999 4.268 22.7322 4.285 22.9362 4.319C23.1515 4.353 23.3895 4.421 23.6502 4.523C23.7522 4.557 23.8032 4.61933 23.8032 4.71C23.8032 4.99333 23.7975 5.21433 23.7862 5.373L23.7692 6.223C23.7692 6.257 23.7352 6.274 23.6672 6.274C23.5992 6.274 23.5652 6.257 23.5652 6.223C23.5652 6.00767 23.4745 5.77533 23.2932 5.526C23.1119 5.26533 22.8739 5.04433 22.5792 4.863C22.2959 4.68167 22.0012 4.591 21.6952 4.591C21.2305 4.591 20.9982 4.812 20.9982 5.254ZM31.3157 9.878C31.3384 9.878 31.3611 9.90067 31.3837 9.946C31.4177 9.99133 31.4234 10.0253 31.4007 10.048C30.9814 10.456 30.5564 10.7507 30.1257 10.932C29.6951 11.1133 29.2247 11.204 28.7147 11.204C28.0007 11.204 27.3831 11.0567 26.8617 10.762C26.3404 10.456 25.9437 10.0537 25.6717 9.555C25.3997 9.045 25.2637 8.501 25.2637 7.923C25.2637 7.26567 25.4337 6.65933 25.7737 6.104C26.1137 5.53733 26.5784 5.09533 27.1677 4.778C27.7571 4.44933 28.4144 4.285 29.1397 4.285C29.8424 4.285 30.3807 4.438 30.7547 4.744C31.1287 5.03867 31.3157 5.44667 31.3157 5.968C31.3157 6.29667 31.2534 6.461 31.1287 6.461H30.0917L27.0317 6.495C26.9977 6.71033 26.9807 6.94833 26.9807 7.209C26.9807 8.18367 27.2074 8.95433 27.6607 9.521C28.1254 10.0877 28.7601 10.371 29.5647 10.371C29.8481 10.371 30.1427 10.3313 30.4487 10.252C30.7547 10.1727 31.0324 10.0537 31.2817 9.895L31.3157 9.878ZM28.5107 4.625C28.1707 4.625 27.8761 4.761 27.6267 5.033C27.3774 5.305 27.1961 5.679 27.0827 6.155L29.4967 6.104C29.4627 5.118 29.1341 4.625 28.5107 4.625ZM36.9082 4.268C37.1689 4.268 37.4182 4.36433 37.6562 4.557C37.9055 4.73833 38.0302 4.95933 38.0302 5.22C38.0302 5.458 37.9565 5.65633 37.8092 5.815C37.6619 5.96233 37.4692 6.036 37.2312 6.036C37.0612 6.036 36.9195 6.002 36.8062 5.934C36.7042 5.866 36.5965 5.764 36.4832 5.628C36.3812 5.51467 36.2905 5.43533 36.2112 5.39C36.1432 5.33333 36.0582 5.305 35.9562 5.305C35.8429 5.305 35.7182 5.35033 35.5822 5.441C35.4575 5.52033 35.2592 5.696 34.9872 5.968V9.623C34.9872 10.0763 35.0949 10.388 35.3102 10.558C35.5255 10.7167 35.9222 10.796 36.5002 10.796C36.5455 10.796 36.5682 10.83 36.5682 10.898C36.5682 10.966 36.5455 11 36.5002 11C36.1035 11 35.7919 10.9943 35.5652 10.983L34.1882 10.966L33.1852 10.983C33.0152 10.9943 32.7829 11 32.4882 11C32.4542 11 32.4372 10.966 32.4372 10.898C32.4372 10.83 32.4542 10.796 32.4882 10.796C32.8395 10.796 33.0775 10.7167 33.2022 10.558C33.3269 10.388 33.3892 10.0763 33.3892 9.623V6.427C33.3892 6.07567 33.3439 5.82067 33.2532 5.662C33.1739 5.492 33.0435 5.407 32.8622 5.407C32.6695 5.407 32.3975 5.48633 32.0462 5.645H32.0122C31.9782 5.645 31.9499 5.61667 31.9272 5.56C31.9159 5.50333 31.9215 5.46933 31.9442 5.458L34.3072 4.302C34.3752 4.27933 34.4149 4.268 34.4262 4.268C34.5509 4.268 34.6642 4.387 34.7662 4.625C34.8795 4.85167 34.9475 5.16333 34.9702 5.56C35.4349 5.084 35.8145 4.74967 36.1092 4.557C36.4152 4.36433 36.6815 4.268 36.9082 4.268ZM43.7746 9.81C43.8199 9.81 43.8539 9.83267 43.8766 9.878C43.9106 9.92333 43.9106 9.95733 43.8766 9.98C43.4573 10.3993 43.0493 10.711 42.6526 10.915C42.2559 11.1077 41.8366 11.204 41.3946 11.204C40.8959 11.204 40.4709 11.085 40.1196 10.847C39.7683 10.609 39.5926 10.2067 39.5926 9.64V5.866C39.5926 5.51467 39.5303 5.271 39.4056 5.135C39.2809 4.999 39.0543 4.931 38.7256 4.931C38.7143 4.931 38.6973 4.914 38.6746 4.88C38.6633 4.846 38.6576 4.812 38.6576 4.778C38.6576 4.73267 38.6633 4.69867 38.6746 4.676C38.6859 4.642 38.7029 4.625 38.7256 4.625C39.3036 4.60233 39.7683 4.47767 40.1196 4.251C40.4823 4.02433 40.7599 3.67867 40.9526 3.214C40.9753 3.16867 41.0206 3.146 41.0886 3.146C41.1679 3.146 41.2076 3.16867 41.2076 3.214V4.574C41.8649 4.56267 42.6016 4.51167 43.4176 4.421C43.4403 4.421 43.4629 4.46633 43.4856 4.557C43.5196 4.63633 43.5366 4.727 43.5366 4.829C43.5366 4.94233 43.5139 5.05567 43.4686 5.169C43.4346 5.271 43.3949 5.31633 43.3496 5.305C42.6129 5.14633 41.8989 5.06133 41.2076 5.05V9.079C41.2076 9.50967 41.3153 9.827 41.5306 10.031C41.7573 10.235 42.0519 10.337 42.4146 10.337C42.8679 10.337 43.3099 10.167 43.7406 9.827L43.7746 9.81ZM50.9199 2.092C50.9199 2.5 51.0219 2.86267 51.2259 3.18C51.4412 3.49733 51.7019 3.775 52.0079 4.013C52.3139 4.251 52.7276 4.54 53.2489 4.88C53.8156 5.24267 54.2689 5.56 54.6089 5.832C54.9489 6.104 55.2379 6.43833 55.4759 6.835C55.7139 7.22033 55.8329 7.668 55.8329 8.178C55.8329 8.76733 55.6742 9.29433 55.3569 9.759C55.0396 10.2123 54.5976 10.5693 54.0309 10.83C53.4756 11.0793 52.8522 11.204 52.1609 11.204C51.6509 11.204 51.1182 11.136 50.5629 11C50.0076 10.8527 49.6336 10.694 49.4409 10.524C49.3842 10.4787 49.3389 10.439 49.3049 10.405C49.2822 10.3597 49.2709 10.2917 49.2709 10.201L49.2199 7.498V7.481C49.2199 7.43567 49.2482 7.413 49.3049 7.413C49.3616 7.40167 49.3956 7.41867 49.4069 7.464C49.7469 8.15533 50.0416 8.71633 50.2909 9.147C50.5516 9.57767 50.8746 9.95733 51.2599 10.286C51.6566 10.6147 52.1042 10.779 52.6029 10.779C53.0562 10.779 53.4302 10.66 53.7249 10.422C54.0196 10.1727 54.1669 9.75333 54.1669 9.164C54.1669 8.66533 54.0536 8.229 53.8269 7.855C53.6116 7.481 53.3452 7.16367 53.0279 6.903C52.7106 6.64233 52.2742 6.33067 51.7189 5.968C51.1749 5.61667 50.7499 5.31633 50.4439 5.067C50.1492 4.81767 49.8942 4.51733 49.6789 4.166C49.4636 3.81467 49.3559 3.401 49.3559 2.925C49.3559 2.32433 49.5259 1.82 49.8659 1.412C50.2172 0.992666 50.6649 0.686666 51.2089 0.493999C51.7529 0.289999 52.3252 0.187999 52.9259 0.187999C53.3226 0.187999 53.7249 0.227666 54.1329 0.307C54.5409 0.375 54.8696 0.46 55.1189 0.562C55.2209 0.607333 55.2889 0.658333 55.3229 0.715C55.3569 0.760333 55.3739 0.822666 55.3739 0.901999V3.401C55.3739 3.435 55.3456 3.46333 55.2889 3.486C55.2322 3.49733 55.1982 3.486 55.1869 3.452L55.0509 3.129C54.7676 2.415 54.4332 1.80867 54.0479 1.31C53.6739 0.811333 53.1469 0.562 52.4669 0.562C52.0136 0.562 51.6396 0.692333 51.3449 0.953C51.0616 1.21367 50.9199 1.59333 50.9199 2.092ZM63.3069 9.878C63.3296 9.878 63.3523 9.90067 63.3749 9.946C63.4089 9.99133 63.4146 10.0253 63.3919 10.048C62.9726 10.456 62.5476 10.7507 62.1169 10.932C61.6863 11.1133 61.2159 11.204 60.7059 11.204C59.9919 11.204 59.3743 11.0567 58.8529 10.762C58.3316 10.456 57.9349 10.0537 57.6629 9.555C57.3909 9.045 57.2549 8.501 57.2549 7.923C57.2549 7.26567 57.4249 6.65933 57.7649 6.104C58.1049 5.53733 58.5696 5.09533 59.1589 4.778C59.7483 4.44933 60.4056 4.285 61.1309 4.285C61.8336 4.285 62.3719 4.438 62.7459 4.744C63.1199 5.03867 63.3069 5.44667 63.3069 5.968C63.3069 6.29667 63.2446 6.461 63.1199 6.461H62.0829L59.0229 6.495C58.9889 6.71033 58.9719 6.94833 58.9719 7.209C58.9719 8.18367 59.1986 8.95433 59.6519 9.521C60.1166 10.0877 60.7513 10.371 61.5559 10.371C61.8393 10.371 62.1339 10.3313 62.4399 10.252C62.7459 10.1727 63.0236 10.0537 63.2729 9.895L63.3069 9.878ZM60.5019 4.625C60.1619 4.625 59.8673 4.761 59.6179 5.033C59.3686 5.305 59.1873 5.679 59.0739 6.155L61.4879 6.104C61.4539 5.118 61.1253 4.625 60.5019 4.625ZM67.6948 11.204C66.9468 11.204 66.3121 11.0453 65.7908 10.728C65.2808 10.3993 64.8955 9.98 64.6348 9.47C64.3855 8.94867 64.2608 8.40467 64.2608 7.838C64.2608 7.124 64.4591 6.50067 64.8558 5.968C65.2525 5.424 65.7568 5.01033 66.3688 4.727C66.9921 4.43233 67.6268 4.285 68.2728 4.285C68.8168 4.285 69.3041 4.39833 69.7348 4.625C70.1768 4.85167 70.3978 5.16333 70.3978 5.56C70.3978 5.77533 70.3128 5.96233 70.1428 6.121C69.9841 6.26833 69.7575 6.342 69.4628 6.342C69.1908 6.342 68.9755 6.274 68.8168 6.138C68.6581 5.99067 68.5278 5.76967 68.4258 5.475C68.3238 5.15767 68.2218 4.94233 68.1198 4.829C68.0291 4.70433 67.8591 4.642 67.6098 4.642C67.1225 4.642 66.7315 4.88567 66.4368 5.373C66.1535 5.849 66.0118 6.48367 66.0118 7.277C66.0118 8.21767 66.2215 8.97133 66.6408 9.538C67.0601 10.0933 67.7288 10.371 68.6468 10.371C68.9528 10.371 69.2135 10.337 69.4288 10.269C69.6555 10.201 69.9388 10.0877 70.2788 9.929H70.2958C70.3298 9.929 70.3581 9.946 70.3808 9.98C70.4148 10.014 70.4205 10.0423 70.3978 10.065C69.9785 10.4503 69.5591 10.7393 69.1398 10.932C68.7205 11.1133 68.2388 11.204 67.6948 11.204ZM76.0215 4.268C76.2821 4.268 76.5315 4.36433 76.7695 4.557C77.0188 4.73833 77.1435 4.95933 77.1435 5.22C77.1435 5.458 77.0698 5.65633 76.9225 5.815C76.7751 5.96233 76.5825 6.036 76.3445 6.036C76.1745 6.036 76.0328 6.002 75.9195 5.934C75.8175 5.866 75.7098 5.764 75.5965 5.628C75.4945 5.51467 75.4038 5.43533 75.3245 5.39C75.2565 5.33333 75.1715 5.305 75.0695 5.305C74.9561 5.305 74.8315 5.35033 74.6955 5.441C74.5708 5.52033 74.3725 5.696 74.1005 5.968V9.623C74.1005 10.0763 74.2081 10.388 74.4235 10.558C74.6388 10.7167 75.0355 10.796 75.6135 10.796C75.6588 10.796 75.6815 10.83 75.6815 10.898C75.6815 10.966 75.6588 11 75.6135 11C75.2168 11 74.9051 10.9943 74.6785 10.983L73.3015 10.966L72.2985 10.983C72.1285 10.9943 71.8961 11 71.6015 11C71.5675 11 71.5505 10.966 71.5505 10.898C71.5505 10.83 71.5675 10.796 71.6015 10.796C71.9528 10.796 72.1908 10.7167 72.3155 10.558C72.4401 10.388 72.5025 10.0763 72.5025 9.623V6.427C72.5025 6.07567 72.4571 5.82067 72.3665 5.662C72.2871 5.492 72.1568 5.407 71.9755 5.407C71.7828 5.407 71.5108 5.48633 71.1595 5.645H71.1255C71.0915 5.645 71.0631 5.61667 71.0405 5.56C71.0291 5.50333 71.0348 5.46933 71.0575 5.458L73.4205 4.302C73.4885 4.27933 73.5281 4.268 73.5395 4.268C73.6641 4.268 73.7775 4.387 73.8795 4.625C73.9928 4.85167 74.0608 5.16333 74.0835 5.56C74.5481 5.084 74.9278 4.74967 75.2225 4.557C75.5285 4.36433 75.7948 4.268 76.0215 4.268ZM83.7767 9.878C83.7993 9.878 83.822 9.90067 83.8447 9.946C83.8787 9.99133 83.8843 10.0253 83.8617 10.048C83.4423 10.456 83.0173 10.7507 82.5867 10.932C82.156 11.1133 81.6857 11.204 81.1757 11.204C80.4617 11.204 79.844 11.0567 79.3227 10.762C78.8013 10.456 78.4047 10.0537 78.1327 9.555C77.8607 9.045 77.7247 8.501 77.7247 7.923C77.7247 7.26567 77.8947 6.65933 78.2347 6.104C78.5747 5.53733 79.0393 5.09533 79.6287 4.778C80.218 4.44933 80.8753 4.285 81.6007 4.285C82.3033 4.285 82.8417 4.438 83.2157 4.744C83.5897 5.03867 83.7767 5.44667 83.7767 5.968C83.7767 6.29667 83.7143 6.461 83.5897 6.461H82.5527L79.4927 6.495C79.4587 6.71033 79.4417 6.94833 79.4417 7.209C79.4417 8.18367 79.6683 8.95433 80.1217 9.521C80.5863 10.0877 81.221 10.371 82.0257 10.371C82.309 10.371 82.6037 10.3313 82.9097 10.252C83.2157 10.1727 83.4933 10.0537 83.7427 9.895L83.7767 9.878ZM80.9717 4.625C80.6317 4.625 80.337 4.761 80.0877 5.033C79.8383 5.305 79.657 5.679 79.5437 6.155L81.9577 6.104C81.9237 5.118 81.595 4.625 80.9717 4.625ZM89.7941 9.81C89.8395 9.81 89.8735 9.83267 89.8961 9.878C89.9301 9.92333 89.9301 9.95733 89.8961 9.98C89.4768 10.3993 89.0688 10.711 88.6721 10.915C88.2755 11.1077 87.8561 11.204 87.4141 11.204C86.9155 11.204 86.4905 11.085 86.1391 10.847C85.7878 10.609 85.6121 10.2067 85.6121 9.64V5.866C85.6121 5.51467 85.5498 5.271 85.4251 5.135C85.3005 4.999 85.0738 4.931 84.7451 4.931C84.7338 4.931 84.7168 4.914 84.6941 4.88C84.6828 4.846 84.6771 4.812 84.6771 4.778C84.6771 4.73267 84.6828 4.69867 84.6941 4.676C84.7055 4.642 84.7225 4.625 84.7451 4.625C85.3231 4.60233 85.7878 4.47767 86.1391 4.251C86.5018 4.02433 86.7795 3.67867 86.9721 3.214C86.9948 3.16867 87.0401 3.146 87.1081 3.146C87.1875 3.146 87.2271 3.16867 87.2271 3.214V4.574C87.8845 4.56267 88.6211 4.51167 89.4371 4.421C89.4598 4.421 89.4825 4.46633 89.5051 4.557C89.5391 4.63633 89.5561 4.727 89.5561 4.829C89.5561 4.94233 89.5335 5.05567 89.4881 5.169C89.4541 5.271 89.4145 5.31633 89.3691 5.305C88.6325 5.14633 87.9185 5.06133 87.2271 5.05V9.079C87.2271 9.50967 87.3348 9.827 87.5501 10.031C87.7768 10.235 88.0715 10.337 88.4341 10.337C88.8875 10.337 89.3295 10.167 89.7601 9.827L89.7941 9.81ZM92.0031 5.254C92.0031 5.58267 92.1164 5.866 92.3431 6.104C92.5811 6.342 92.9211 6.59133 93.3631 6.852C93.7937 7.10133 94.1111 7.29967 94.3151 7.447C94.5304 7.583 94.7231 7.78133 94.8931 8.042C95.0631 8.29133 95.1481 8.59733 95.1481 8.96C95.1481 9.34533 95.0517 9.708 94.8591 10.048C94.6664 10.388 94.3774 10.6657 93.9921 10.881C93.6067 11.085 93.1477 11.187 92.6151 11.187C91.9917 11.187 91.4024 11.034 90.8471 10.728C90.7791 10.66 90.7451 10.592 90.7451 10.524L90.7111 8.841C90.7111 8.807 90.7394 8.79 90.7961 8.79C90.8641 8.77867 90.9037 8.78433 90.9151 8.807C91.0964 9.37367 91.3967 9.85533 91.8161 10.252C92.2354 10.6487 92.6604 10.847 93.0911 10.847C93.3291 10.847 93.5161 10.7733 93.6521 10.626C93.7994 10.4787 93.8731 10.2633 93.8731 9.98C93.8731 9.56067 93.7541 9.232 93.5161 8.994C93.2781 8.74467 92.9267 8.48967 92.4621 8.229C92.0654 8.01367 91.7651 7.838 91.5611 7.702C91.3571 7.566 91.1757 7.37333 91.0171 7.124C90.8584 6.87467 90.7791 6.56867 90.7791 6.206C90.7791 5.53733 91.0171 5.05 91.4931 4.744C91.9691 4.42667 92.5527 4.268 93.2441 4.268C93.5047 4.268 93.7371 4.285 93.9411 4.319C94.1564 4.353 94.3944 4.421 94.6551 4.523C94.7571 4.557 94.8081 4.61933 94.8081 4.71C94.8081 4.99333 94.8024 5.21433 94.7911 5.373L94.7741 6.223C94.7741 6.257 94.7401 6.274 94.6721 6.274C94.6041 6.274 94.5701 6.257 94.5701 6.223C94.5701 6.00767 94.4794 5.77533 94.2981 5.526C94.1167 5.26533 93.8787 5.04433 93.5841 4.863C93.3007 4.68167 93.0061 4.591 92.7001 4.591C92.2354 4.591 92.0031 4.812 92.0031 5.254Z" fill="white"/>
</svg>
