<svg width="1556" height="871" viewBox="0 0 1556 871" fill="none" xmlns="http://www.w3.org/2000/svg">
<g opacity="0.15">
<path fill-rule="evenodd" clip-rule="evenodd" d="M732.452 924.929C762.236 918.332 774.242 876.428 804.665 873.357C857.387 868.034 919.839 935.988 958.752 902.082C994.14 871.249 906.137 815.947 920.339 772.569C936.331 723.721 1042.82 717.718 1035.7 667.046C1028.98 619.235 930.036 645.546 897.277 608.467C865.558 572.566 904.032 502.099 864.765 473.566C829.148 447.687 774.268 473.07 732.452 488.702C696.306 502.214 680.018 546.559 642.621 556.609C594.23 569.613 535.55 526.734 493.592 552.891C456.215 576.192 452.221 630.805 456.175 672.841C459.958 713.066 508.195 739.059 514.855 778.952C522.213 823.026 463.741 876.986 495.75 909.89C529.041 944.114 592.599 906.307 641.783 909.431C672.819 911.403 702.171 931.635 732.452 924.929Z" stroke="white"/>
<path fill-rule="evenodd" clip-rule="evenodd" d="M727.517 1023.74C770.002 1014.34 787.126 954.579 830.523 950.199C905.726 942.609 994.807 1039.51 1050.31 991.163C1100.79 947.193 975.263 868.331 995.52 806.473C1018.33 736.816 1170.23 728.256 1160.08 655.995C1150.49 587.817 1009.35 625.337 962.624 572.461C917.381 521.265 972.261 420.777 916.249 380.09C865.446 343.185 787.164 379.382 727.517 401.674C675.959 420.942 652.725 484.179 599.382 498.51C530.356 517.054 446.655 455.907 386.806 493.208C333.491 526.436 327.794 604.315 333.434 664.26C338.83 721.621 407.636 758.688 417.135 815.576C427.631 878.427 344.227 955.375 389.883 1002.3C437.371 1051.1 528.029 997.186 598.186 1001.64C642.457 1004.45 684.325 1033.31 727.517 1023.74Z" stroke="white"/>
<path fill-rule="evenodd" clip-rule="evenodd" d="M722.828 1106.08C776.015 1094.3 797.453 1019.47 851.781 1013.99C945.928 1004.48 1057.45 1125.83 1126.94 1065.28C1190.13 1010.22 1032.98 911.469 1058.34 834.008C1086.9 746.781 1277.06 736.061 1264.35 645.574C1252.35 560.199 1075.66 607.183 1017.16 540.97C960.518 476.86 1029.22 351.026 959.102 300.075C895.501 253.862 797.5 299.19 722.828 327.104C658.283 351.232 629.197 430.42 562.417 448.365C476.004 471.587 371.219 395.017 296.294 441.726C229.549 483.335 222.417 580.859 229.477 655.923C236.233 727.753 322.37 774.17 334.263 845.407C347.403 924.111 242.989 1020.47 300.146 1079.23C359.596 1140.34 473.091 1072.83 560.92 1078.41C616.342 1081.93 668.756 1118.06 722.828 1106.08Z" stroke="white"/>
<path fill-rule="evenodd" clip-rule="evenodd" d="M715.788 1209.54C783.61 1194.51 810.946 1099.05 880.223 1092.05C1000.27 1079.93 1142.48 1234.73 1231.09 1157.49C1311.67 1087.25 1111.28 961.268 1143.62 862.45C1180.03 751.174 1422.52 737.498 1406.31 622.062C1391.01 513.148 1165.7 573.086 1091.1 488.617C1018.88 406.831 1106.49 246.303 1017.07 181.304C935.972 122.349 811.006 180.175 715.788 215.785C633.484 246.566 596.395 347.587 511.24 370.48C401.05 400.105 267.433 302.423 171.892 362.01C86.7824 415.092 77.6876 539.504 86.6907 635.265C95.3058 726.899 205.144 786.114 220.309 876.992C237.064 977.396 103.92 1100.32 176.805 1175.28C252.612 1253.24 397.335 1167.11 509.33 1174.23C580.002 1178.72 646.838 1224.81 715.788 1209.54Z" stroke="white"/>
<path fill-rule="evenodd" clip-rule="evenodd" d="M709.123 1290.49C792.159 1272.09 825.628 1155.25 910.446 1146.69C1057.43 1131.85 1231.54 1321.32 1340.02 1226.79C1438.68 1140.81 1193.34 986.616 1232.93 865.666C1277.51 729.467 1574.4 712.729 1554.55 571.44C1535.82 438.133 1259.96 511.495 1168.64 408.108C1080.21 308.005 1187.47 111.524 1078 31.9681C978.702 -40.1911 825.701 30.5852 709.123 74.1712C608.354 111.846 562.945 235.491 458.687 263.513C323.778 299.772 160.186 180.213 43.2122 253.146C-60.9907 318.116 -72.1258 470.391 -61.103 587.599C-50.5553 699.756 83.9231 772.233 102.49 883.464C123.004 1006.36 -40.0085 1156.81 49.2266 1248.56C142.04 1343.98 319.23 1238.56 456.349 1247.28C542.875 1252.77 624.705 1309.19 709.123 1290.49Z" stroke="white"/>
</g>
</svg>
